<svg width="91" height="91" viewBox="0 0 91 91" fill="none" xmlns="http://www.w3.org/2000/svg">
<path fill-rule="evenodd" clip-rule="evenodd" d="M45.5004 2.60938C21.233 2.60938 1.55469 22.2841 1.55469 46.5551C1.55469 65.9714 14.1465 82.4441 31.6074 88.255C33.8037 88.6618 34.61 87.3017 34.61 86.1409C34.61 85.093 34.5692 81.6312 34.5503 77.9592C22.3246 80.6175 19.7448 72.7741 19.7448 72.7741C17.7458 67.6946 14.8654 66.344 14.8654 66.344C10.8783 63.6165 15.166 63.6725 15.166 63.6725C19.5789 63.9825 21.9025 68.2011 21.9025 68.2011C25.822 74.9195 32.1831 72.9772 34.6908 71.8543C35.0852 69.014 36.2241 67.0754 37.4809 65.978C27.7199 64.8667 17.4591 61.0986 17.4591 44.2598C17.4591 39.4619 19.1757 35.5417 21.9869 32.4642C21.5307 31.3573 20.0265 26.8876 22.4127 20.8344C22.4127 20.8344 26.1029 19.6534 34.5008 25.339C38.0063 24.3654 41.7657 23.8771 45.5004 23.8603C49.235 23.8771 52.9974 24.3654 56.5093 25.339C64.8971 19.6534 68.5822 20.8344 68.5822 20.8344C70.9743 26.8876 69.4693 31.3573 69.0131 32.4642C71.8308 35.5417 73.5359 39.4619 73.5359 44.2598C73.5359 61.1386 63.2553 64.8551 53.4696 65.943C55.0459 67.3068 56.4504 69.9811 56.4504 74.0811C56.4504 79.9611 56.3995 84.6935 56.3995 86.1409C56.3995 87.3104 57.1905 88.6807 59.418 88.2492C76.8696 82.4317 89.4453 65.9649 89.4453 46.5551C89.4453 22.2841 69.7699 2.60938 45.5004 2.60938ZM18.0138 65.2109C17.917 65.4292 17.5735 65.4947 17.2606 65.3448C16.9418 65.2015 16.7628 64.9038 16.8662 64.6848C16.9608 64.4599 17.305 64.3973 17.623 64.548C17.9425 64.6913 18.1244 64.9919 18.0138 65.2109ZM20.1754 67.1397C19.9658 67.334 19.5561 67.2438 19.2781 66.9367C18.9907 66.6303 18.9368 66.2206 19.1493 66.0234C19.3655 65.8291 19.7628 65.9201 20.051 66.2264C20.3384 66.5364 20.3945 66.9432 20.1754 67.1397ZM21.6584 69.6076C21.3891 69.7946 20.9488 69.6192 20.6767 69.2284C20.4074 68.8376 20.4074 68.369 20.6825 68.1812C20.9554 67.9935 21.3891 68.1623 21.6649 68.5502C21.9335 68.9475 21.9335 69.4162 21.6584 69.6076ZM24.1664 72.4657C23.9255 72.7313 23.4125 72.66 23.037 72.2976C22.6527 71.9432 22.5458 71.4403 22.7874 71.1747C23.0311 70.9083 23.5471 70.9833 23.9255 71.3428C24.3068 71.6965 24.4233 72.2029 24.1664 72.4657ZM27.4078 73.4305C27.3015 73.7747 26.8074 73.9312 26.3096 73.7849C25.8126 73.6343 25.4873 73.2311 25.5877 72.8833C25.6911 72.5369 26.1874 72.3739 26.6888 72.5303C27.1851 72.6802 27.5111 73.0805 27.4078 73.4305ZM31.0966 73.8398C31.1089 74.2022 30.6869 74.5027 30.1643 74.5093C29.6389 74.5209 29.2139 74.2277 29.2081 73.8711C29.2081 73.505 29.6207 73.2074 30.1462 73.1987C30.6687 73.1885 31.0966 73.4796 31.0966 73.8398ZM34.7204 73.7009C34.783 74.0546 34.4199 74.4177 33.901 74.5145C33.3909 74.6076 32.9186 74.3893 32.8538 74.0386C32.7905 73.6761 33.1602 73.313 33.6696 73.2191C34.1892 73.1289 34.6542 73.3414 34.7204 73.7009Z" fill="#000000"/>
</svg>