<svg width="90" height="90" viewBox="0 0 90 90" fill="none" xmlns="http://www.w3.org/2000/svg">
<path fill-rule="evenodd" clip-rule="evenodd" d="M90 45.0002C90 20.1487 69.854 0 44.9998 0C20.146 0 0 20.149 0 45.0002C0 69.8513 20.1457 90 44.9998 90C69.854 90 90 69.8516 90 45.0002ZM34.1505 19.1547C36.9 19.0322 37.7743 19 44.777 19C51.7798 19 52.6541 19.0258 55.4036 19.1547C58.1467 19.2814 60.0177 19.7153 61.661 20.3533C63.3601 21.0085 64.795 21.8935 66.2278 23.3262C67.6584 24.759 68.5435 26.1982 69.2008 27.8931C69.8366 29.5342 70.2705 31.4073 70.3994 34.1504C70.5218 36.9 70.554 37.7743 70.554 44.777C70.554 51.7798 70.5283 52.6541 70.3994 55.4036C70.2726 58.1467 69.8366 60.0177 69.2008 61.661C68.5456 63.3601 67.6584 64.795 66.2278 66.2278C64.795 67.6584 63.3537 68.5434 61.661 69.2008C60.0177 69.8366 58.1467 70.2705 55.4036 70.3994C52.6541 70.5218 51.7798 70.554 44.777 70.554C37.7743 70.554 36.9 70.5283 34.1505 70.3994C31.4073 70.2727 29.5385 69.8366 27.8931 69.2008C26.1961 68.5456 24.759 67.6584 23.3262 66.2278C21.8935 64.795 21.0106 63.3537 20.3533 61.661C19.7153 60.0177 19.2835 58.1467 19.1547 55.4036C19.0322 52.6541 19 51.7798 19 44.777C19 37.7743 19.0258 36.9 19.1547 34.1504C19.2814 31.4052 19.7153 29.5364 20.3533 27.8931C21.0085 26.1961 21.8935 24.759 23.3262 23.3262C24.759 21.8935 26.1982 21.0106 27.8931 20.3533C29.5363 19.7153 31.4052 19.2835 34.1505 19.1547ZM55.1953 23.7924C52.4779 23.6742 51.6573 23.6399 44.777 23.6399L44.6804 23.5754C37.8923 23.5754 37.0076 23.6067 34.3668 23.6999L34.2428 23.7043C31.7296 23.8332 30.3741 24.2521 29.4719 24.6087C28.2497 25.0576 27.4098 25.6376 26.5097 26.5376C25.6054 27.442 25.0275 28.2797 24.5764 29.5041C24.222 30.4063 23.8053 31.7897 23.6742 34.303L23.6687 34.4594C23.5763 37.0763 23.5432 38.012 23.5432 44.7448C23.5432 51.4843 23.5764 52.4115 23.6691 55.0057L23.6742 55.1501C23.8053 57.6634 24.222 59.0489 24.5764 59.9511C25.0275 61.1454 25.6054 62.0154 26.5097 62.9155C27.4098 63.8177 28.2497 64.3654 29.4719 64.8466C30.3741 65.201 31.7596 65.6199 34.275 65.7509C37.0096 65.8777 37.8151 65.9099 44.7126 65.9099C51.6079 65.9099 52.4135 65.882 55.1501 65.7595C57.6634 65.6457 59.0489 65.2247 59.9511 64.8724C61.1454 64.4062 62.0154 63.8477 62.9155 62.9477C63.8177 62.0412 64.3654 61.1862 64.8466 59.979C65.201 59.0725 65.6199 57.7085 65.7509 55.1952C65.8777 52.4779 65.9099 51.6595 65.9099 44.777C65.9099 37.8946 65.882 37.0783 65.7595 34.3588C65.6457 31.8456 65.2246 30.4815 64.8724 29.575C64.4062 28.3678 63.8477 27.5107 62.9477 26.6085C62.0412 25.7085 61.1862 25.15 59.979 24.6838C59.0725 24.3273 57.7085 23.9105 55.1953 23.7924ZM31.5405 44.777C31.5405 37.4692 37.4628 31.5405 44.777 31.5405C52.0848 31.5405 58.0135 37.4628 58.0135 44.777C58.0135 52.0848 52.0912 58.0135 44.777 58.0135C37.4692 58.0135 31.5405 52.0913 31.5405 44.777ZM36.1847 44.777C36.1847 49.5243 40.0298 53.3694 44.777 53.3694C49.5243 53.3694 53.3694 49.5243 53.3694 44.777C53.3694 40.0298 49.5243 36.1847 44.777 36.1847C40.0298 36.1847 36.1847 40.0298 36.1847 44.777ZM58.5377 34.1118C60.2433 34.1118 61.6309 32.7263 61.6309 31.0185C61.6309 29.313 60.2411 27.9253 58.5377 27.9274C56.8321 27.9274 55.4444 29.313 55.4444 31.0185C55.4444 32.7241 56.8299 34.1118 58.5377 34.1118Z" fill="#000000"/>
</svg>