<svg width="53" height="53" viewBox="0 0 53 53" fill="none" xmlns="http://www.w3.org/2000/svg">
<path fill-rule="evenodd" clip-rule="evenodd" d="M53 26.5001C53 11.8654 41.1363 0 26.4999 0C11.8637 0 0 11.8656 0 26.5001C0 41.1346 11.8635 53 26.4999 53C41.1363 53 53 41.1348 53 26.5001ZM19.895 36.4109H14.9329V19.8716H19.895V36.4109ZM28.1731 22.1193C29.7017 20.1781 31.8565 19.2987 34.2647 19.2987C36.6745 19.2987 39.7617 20.501 39.7619 27.0218V36.4095H34.7997V27.3911C34.7997 25.5411 34.263 23.691 32.0868 23.691C29.9105 23.691 28.1731 25.5411 28.1731 27.4375V36.4111H23.1927V19.8172H28.1731V22.1193ZM19.8752 15.7343C19.8752 17.1057 18.7621 18.2187 17.3907 18.2187C16.0194 18.2187 14.9063 17.1058 14.9063 15.7345C14.9063 14.3631 16.0194 13.25 17.3907 13.25C18.7621 13.25 19.8752 14.3629 19.8752 15.7343Z" fill="#000000"/>
</svg>