<svg width="53" height="53" viewBox="0 0 53 53" fill="none" xmlns="http://www.w3.org/2000/svg">
<path d="M26.3763 7.21389e-05C19.3695 0.0327708 12.6609 2.83915 7.7179 7.80532C2.7749 12.7715 -7.62958e-05 19.4932 1.57329e-09 26.5C1.57331e-09 33.5283 2.79196 40.2686 7.76167 45.2383C12.7314 50.208 19.4718 53 26.5 53C33.5282 53 40.2686 50.208 45.2383 45.2383C50.208 40.2686 53 33.5283 53 26.5C53 19.4718 50.208 12.7314 45.2383 7.76173C40.2686 2.79202 33.5282 7.21389e-05 26.5 7.21389e-05C26.4588 -2.40463e-05 26.4176 -2.40463e-05 26.3763 7.21389e-05ZM37.3341 15.9531C37.5549 15.9486 38.043 16.0038 38.361 16.2622C38.5723 16.4457 38.707 16.7018 38.7386 16.9799C38.7739 17.1853 38.8181 17.6557 38.7828 18.0223C38.3853 22.2137 36.6583 32.3808 35.7794 37.0735C35.4084 39.061 34.6775 39.7257 33.9686 39.7898C32.4316 39.9333 31.2634 38.7739 29.7728 37.7979C27.4408 36.2675 26.1224 35.3157 23.8588 33.8229C21.242 32.1004 22.938 31.1508 24.4286 29.6049C24.8195 29.1986 31.599 23.0308 31.7315 22.472C31.747 22.4014 31.7625 22.1408 31.6079 22.0039C31.4533 21.867 31.2236 21.9133 31.058 21.9509C30.8239 22.0039 27.0985 24.4684 19.8816 29.3377C18.8216 30.0665 17.8654 30.4198 17.0064 30.3977C16.0612 30.3801 14.2415 29.8655 12.8878 29.4261C11.2272 28.885 9.90879 28.6002 10.0236 27.6837C10.0833 27.2067 10.7413 26.7187 11.9957 26.2196C19.7204 22.8541 24.8703 20.6347 27.4496 19.5637C34.8078 16.5029 36.3381 15.9707 37.3341 15.9531Z" fill="#000000"/>
</svg>